# xmcd CD database file
# Copyright (C) 1997 Ti Kan
#
# Track frame offsets:
#  150
#  11527
#  24125
#  38472
#  49270
#  63220
#  76850
#  89025
#  103242
#  114000
#  127820
#  140100
#  162450
#  175725
#  189172
#  202925
#  219090
#  234675
#  249495
#  262050
#  277250
#  292045
#  310925
#  322550
#  338157
#
# Disc length: 4646 seconds
#
# Revision: 1
# Processed by: cddbd v1.4b41PL1 Copyright (c) Steve Scherf et al.
# Submitted via: CDWizzard Release:4.32
#
DISCID=55122419
DTITLE=Dolly Parton - Dolly Parton: Legendary Country Singers
DYEAR=1900
DGENRE=
TTITLE0=Holding On to Nothin'
TTITLE1=In the Good Old Days (When Times Were Bad)
TTITLE2=Mule Skinner Blues (Blue Yodel #8)
TTITLE3=Just Someone I Used to Know
TTITLE4=Coat of Many Colors
TTITLE5=Joshua
TTITLE6=Jolene
TTITLE7=My Tennessee Mountain Home
TTITLE8=Love Is Like a Butterfly
TTITLE9=The Seeker
TTITLE10=The Bargain Store
TTITLE11=Light of a Clear Blue Morning
TTITLE12=I Will Always Love You
TTITLE13=Here You Come Again
TTITLE14=Two Doors Down
TTITLE15=Heartbreaker
TTITLE16=Old Flames Can't Hold a Candle to You
TTITLE17=It's All Wrong, But It's All Right
TTITLE18=9 to 5
TTITLE19=Tennessee Homesick Blues
TTITLE20=But You Know I Love You
TTITLE21=Islands in the Stream
TTITLE22=Why'd You Come in Here Lookin' Like That
TTITLE23=Rockin' Years
TTITLE24=It's Sure Gonna Hurt
EXTD=
EXTT0=Dolly Parton and Porter Wagoner
EXTT1=Dolly Parton
EXTT2=Dolly Parton
EXTT3=Dolly Parton and Porter Wagoner
EXTT4=Dolly Parton
EXTT5=Dolly Parton
EXTT6=Dolly Parton
EXTT7=Dolly Parton
EXTT8=Dolly Parton
EXTT9=Dolly Parton
EXTT10=Dolly Parton
EXTT11=Dolly Parton
EXTT12=Dolly Parton
EXTT13=Dolly Parton
EXTT14=Dolly Parton
EXTT15=Dolly Parton
EXTT16=Dolly Parton
EXTT17=Dolly Parton
EXTT18=Dolly Parton
EXTT19=Dolly Parton
EXTT20=Dolly Parton
EXTT21=Dolly Parton and Kenny Rogers
EXTT22=Dolly Parton
EXTT23=Dolly Parton and Ricky Van Shelton
EXTT24=Dolly Parton with the Merry Melody Singers
PLAYORDER=
